:SAMPLES-PER-SECOND 30
:FULLY-SPECIFIED
:DEGREES
182
root  12.4988 39.1455 3.23059 15.5295 79.3865 19.4778
RightUpLeg  14.2677 -11.4645 -6.03563
RightLeg  17.15 2.73181 2.36904
RightFoot  -20.5642 -0.613729 -5.88561
RightToes  0.00048216 0.542163 -0.142577
Spine  7.18399 3.54427 12.0738
Spine1  10.2547 5.93269 -5.03616
HEad  4.79977 -19.4038 3.7895
LeftShoulder1  6.54443 -11.3594 -37.8823
LeftArm  -29.9035 39.3049 -18.9368
LeftForeArm  99.6881 -76.734 -123.351
LeftHand  -0.25398 0.0180481 5.50724
RightShoulder  4.63047 8.44209 32.8212
RightArm  8.06243 -4.59743 37.155
RightForeArm  19.9136 77.4389 76.1241
RightHand  0.59273 -9.75885 -16.7461
LeftUpLeg  -16.0983 4.82054 4.20647
LeftLeg  -4.44232 20.5631 -7.32377
LeftFoot  -1.89199 0.426303 -5.0143
LeftToes  1.06244e-005 4.65856e-005 -8.18505e-006
183
root  14.2659 38.788 3.07382 17.8906 79.4652 22.2758
RightUpLeg  16.2214 -11.0411 -7.41892
RightLeg  19.9041 3.08291 1.39653
RightFoot  -21.9187 -0.409462 -2.93517
RightToes  0.00048216 0.542163 -0.142577
Spine  7.05755 3.04187 11.0949
Spine1  10.6844 5.39803 -4.8629
HEad  5.50216 -19.4 4.01578
LeftShoulder1  6.46974 -11.2356 -37.7506
LeftArm  -28.8509 37.8841 -18.6836
LeftForeArm  98.0958 -77.0734 -121.137
LeftHand  -0.25398 0.0180481 5.50724
RightShoulder  4.64574 8.38671 33.1291
RightArm  7.56426 -5.51318 37.0052
RightForeArm  18.3773 77.3661 74.9619
RightHand  0.514435 -9.09075 -17.2242
LeftUpLeg  -16.9047 5.21027 1.89925
LeftLeg  0.92572 17.159 -5.64213
LeftFoot  1.17892 0.387461 -3.64778
LeftToes  1.06244e-005 4.65856e-005 -8.18505e-006
184
root  16.0406 38.3848 2.90676 18.5577 78.9946 23.8606
RightUpLeg  16.9317 -8.11141 -8.23499
RightLeg  25.4531 1.94094 0.725955
RightFoot  -21.6588 0.118538 3.21775
RightToes  0.00048216 0.542163 -0.142577
Spine  7.79415 2.94287 9.92747
Spine1  10.7155 5.08937 -4.24256
HEad  5.79958 -19.8401 4.65428
LeftShoulder1  6.5239 -11.2855 -37.9597
LeftArm  -27.903 35.9814 -18.8728
LeftForeArm  95.0288 -77.6067 -117.063
LeftHand  -0.25398 0.0180481 5.50724
RightShoulder  4.6964 8.4015 33.5033
RightArm  6.6187 -6.81234 36.4582
RightForeArm  15.6923 77.2053 72.525
RightHand  0.399718 -8.24698 -17.52
LeftUpLeg  -18.6498 11.8723 -2.06528
LeftLeg  9.5804 5.5463 -2.55909
LeftFoot  5.7905 0.256248 -1.93717
LeftToes  1.06244e-005 4.65856e-005 -8.18505e-006
185
root  17.7129 38.1647 2.77587 19.8767 77.5579 26.5731
RightUpLeg  15.1864 -4.8002 -9.55694
RightLeg  34.7853 0.051227 -0.26651
RightFoot  -15.6486 0.206251 8.27576
RightToes  0.00048216 0.542163 -0.142577
Spine  9.78917 3.05145 7.75757
Spine1  10.381 4.94208 -3.3337
HEad  5.99959 -20.126 5.37466
LeftShoulder1  6.7208 -11.5074 -38.5922
LeftArm  -27.0293 33.9696 -19.064
LeftForeArm  89.1323 -78.2751 -110.117
LeftHand  -0.25398 0.0180481 5.50724
RightShoulder  4.84554 8.64229 33.9458
RightArm  5.4319 -7.79554 35.7184
RightForeArm  10.539 76.7884 67.3733
RightHand  0.340598 -7.87514 -17.3586
LeftUpLeg  -19.2184 19.4532 -5.82988
LeftLeg  16.0593 -3.68402 -1.0679
LeftFoot  7.84738 0.0318795 -0.446589
LeftToes  1.06244e-005 4.65856e-005 -8.18505e-006
186
root  19.2807 38.1277 2.65163 23.4927 75.6734 31.2495
RightUpLeg  9.76456 -2.84356 -11.7902
RightLeg  47.1416 -1.76862 -2.38024
RightFoot  -3.46161 -0.456948 7.15997
RightToes  0.00048216 0.542163 -0.142577
Spine  11.6341 2.99036 4.77929
Spine1  10.2599 4.53356 -2.49514
HEad  6.29075 -19.7747 5.69155
LeftShoulder1  7.02316 -11.8792 -39.4359
LeftArm  -25.8323 31.8883 -18.6472
LeftForeArm  79.396 -78.847 -99.6791
LeftHand  -0.25398 0.0180481 5.50724
RightShoulder  5.01068 8.95659 34.263
RightArm  4.3975 -7.9023 35.161
RightForeArm  4.37129 76.1447 61.5586
RightHand  0.327534 -7.7803 -17.3952
LeftUpLeg  -18.1181 20.6464 -7.30514
LeftLeg  20.5082 -2.70968 -0.721171
LeftFoot  5.26868 -0.149767 0.828921
LeftToes  1.06244e-005 4.65856e-005 -8.18505e-006
